<?xml version="1.0" standalone="no"?>
<!DOCTYPE svg PUBLIC "-//W3C//DTD SVG 20010904//EN"
 "http://www.w3.org/TR/2001/REC-SVG-20010904/DTD/svg10.dtd">
<svg version="1.0" xmlns="http://www.w3.org/2000/svg"
 width="200.000000pt" height="200.000000pt" viewBox="0 0 200.000000 200.000000"
 preserveAspectRatio="xMidYMid meet">
<metadata>
Created by potrace 1.16, written by Peter Selinger 2001-2019
</metadata>
<g transform="translate(0.000000,200.000000) scale(0.100000,-0.100000)"
fill="#000000" stroke="none">
<path d="M540 1192 c0 -5 8 -17 19 -26 17 -15 19 -15 25 -1 10 28 7 35 -19 35
-14 0 -25 -4 -25 -8z"/>
<path d="M626 1185 c4 -8 7 -15 9 -15 1 0 8 7 15 15 10 13 9 15 -8 15 -15 0
-20 -5 -16 -15z"/>
<path d="M535 1119 c-29 -11 -64 -34 -84 -55 l-33 -36 93 -94 c78 -79 95 -91
97 -74 2 12 -1 27 -7 34 -6 8 -9 21 -5 30 4 9 1 16 -6 16 -18 0 -70 56 -70 75
0 8 -9 15 -20 15 -23 0 -27 25 -5 34 27 10 107 -5 101 -20 -3 -7 -1 -16 4 -19
6 -4 10 -1 10 4 0 14 23 14 37 0 7 -7 4 -17 -14 -35 -13 -13 -28 -24 -33 -24
-15 0 28 -40 43 -40 6 0 20 -7 30 -14 17 -13 16 -16 -12 -49 -31 -35 -39 -57
-22 -57 6 0 13 5 17 11 3 6 17 9 30 6 33 -6 66 41 72 104 8 86 -45 162 -136
193 -32 11 -44 10 -87 -5z"/>
<path d="M1113 1093 c9 -9 19 -14 23 -11 10 10 -6 28 -24 28 -15 0 -15 -1 1
-17z"/>
<path d="M1165 1100 c4 -6 11 -8 16 -5 14 9 11 15 -7 15 -8 0 -12 -5 -9 -10z"/>
<path d="M1276 1066 c10 -8 21 -12 24 -10 5 6 -21 24 -34 24 -6 0 -1 -6 10
-14z"/>
<path d="M1234 1056 c-9 -24 0 -59 16 -64 12 -4 13 -2 3 9 -20 20 -16 27 20
32 l32 4 -34 1 c-25 2 -32 6 -27 17 3 8 3 15 0 15 -2 0 -7 -6 -10 -14z"/>
<path d="M1336 1063 c5 -5 12 -12 16 -18 4 -6 8 -2 8 8 0 9 -7 17 -17 17 -9 0
-12 -3 -7 -7z"/>
<path d="M1380 1054 c0 -14 3 -14 15 -4 8 7 15 14 15 16 0 2 -7 4 -15 4 -8 0
-15 -7 -15 -16z"/>
<path d="M1420 1044 c0 -14 -4 -23 -10 -19 -12 7 -13 -5 -1 -23 6 -10 11 -1
19 27 5 23 6 41 1 41 -5 0 -9 -12 -9 -26z"/>
<path d="M1160 1011 c0 -5 5 -13 10 -16 6 -3 10 -2 10 4 0 5 -4 13 -10 16 -5
3 -10 2 -10 -4z"/>
<path d="M1360 1005 c0 -8 5 -15 10 -15 6 0 10 7 10 15 0 8 -4 15 -10 15 -5 0
-10 -7 -10 -15z"/>
<path d="M1285 1000 c-3 -5 -1 -10 4 -10 6 0 11 5 11 10 0 6 -2 10 -4 10 -3 0
-8 -4 -11 -10z"/>
<path d="M1108 993 c6 -2 18 -2 25 0 6 3 1 5 -13 5 -14 0 -19 -2 -12 -5z"/>
<path d="M883 909 l12 -32 3 27 c7 54 55 19 50 -36 -2 -28 -7 -33 -28 -34 -14
0 -25 -4 -25 -10 0 -13 48 -5 57 9 12 19 9 82 -4 95 -7 7 -26 12 -44 12 -32 0
-32 0 -21 -31z"/>
<path d="M1007 893 c-10 -9 -9 -23 2 -23 5 0 11 7 15 15 5 15 -5 20 -17 8z"/>
<path d="M1055 859 c0 -21 3 -39 8 -39 4 0 7 15 7 34 0 19 -3 37 -7 39 -5 3
-8 -12 -8 -34z"/>
<path d="M1115 890 c3 -5 10 -10 16 -10 5 0 9 5 9 10 0 6 -7 10 -16 10 -8 0
-12 -4 -9 -10z"/>
<path d="M1156 885 c7 -18 21 -19 27 -2 4 9 8 9 14 1 6 -9 11 -8 21 2 11 12 6
14 -27 14 -32 0 -39 -3 -35 -15z"/>
<path d="M1258 893 c6 -3 12 -11 12 -20 0 -12 2 -12 16 1 26 27 44 20 44 -18
0 -19 -6 -37 -12 -39 -7 -3 -4 -6 8 -6 18 -1 20 3 15 42 l-6 42 -45 1 c-25 0
-39 -1 -32 -3z"/>
<path d="M1131 863 c-2 -20 11 -43 20 -37 5 3 9 12 9 20 0 8 -4 13 -9 10 -5
-4 -12 0 -14 6 -4 9 -6 9 -6 1z"/>
<path d="M1000 850 c0 -5 7 -7 15 -4 8 4 15 8 15 10 0 2 -7 4 -15 4 -8 0 -15
-4 -15 -10z"/>
<path d="M1180 835 c0 -8 5 -15 10 -15 6 0 10 7 10 15 0 8 -4 15 -10 15 -5 0
-10 -7 -10 -15z"/>
<path d="M1262 830 c-11 -17 -10 -20 7 -20 14 0 18 5 14 20 -3 11 -6 20 -7 20
-1 0 -7 -9 -14 -20z"/>
</g>
</svg>
